<svg width="33" height="33" viewBox="0 0 33 33" fill="none" xmlns="http://www.w3.org/2000/svg">
<path d="M16.4998 3C21.0983 3 25.1837 5.07403 28.0926 7.6414C29.5528 8.93004 30.7557 10.3771 31.6038 11.8175C32.437 13.2315 32.9997 14.7644 32.9997 16.1999C32.9997 17.6354 32.4387 19.1682 31.6038 20.5822C30.7557 22.0227 29.5528 23.4697 28.0926 24.7583C25.1837 27.3257 21.0967 29.3997 16.4998 29.3997C11.9013 29.3997 7.81597 27.3257 4.90705 24.7583C3.44681 23.4697 2.24398 22.0227 1.39589 20.5822C0.560994 19.1682 0 17.6354 0 16.1999C0 14.7644 0.560994 13.2315 1.39589 11.8175C2.24398 10.3771 3.44681 8.93004 4.90705 7.6414C7.81597 5.07403 11.903 3 16.4998 3ZM16.4998 6.29997C12.8963 6.29997 9.5567 7.9384 7.09163 10.1147C5.86404 11.1971 4.89385 12.3802 4.23881 13.4922C3.56891 14.6307 3.29997 15.5729 3.29997 16.1999C3.29997 16.8269 3.56891 17.769 4.23881 18.9075C4.89385 20.0196 5.86404 21.201 7.09163 22.285C9.5567 24.4613 12.8963 26.0998 16.4998 26.0998C20.1034 26.0998 23.443 24.4613 25.908 22.285C27.1356 21.201 28.1058 20.0196 28.7609 18.9075C29.4307 17.769 29.6997 16.8269 29.6997 16.1999C29.6997 15.5729 29.4307 14.6307 28.7609 13.4922C28.1058 12.3802 27.1356 11.1988 25.908 10.1147C23.443 7.9384 20.1034 6.29997 16.4998 6.29997ZM16.4998 11.2499C16.645 11.2499 16.7886 11.256 16.9305 11.2681C16.5722 11.8965 16.4304 12.6252 16.5268 13.3421C16.6232 14.059 16.9524 14.7243 17.4639 15.2358C17.9754 15.7473 18.6407 16.0765 19.3576 16.1729C20.0745 16.2693 20.8032 16.1275 21.4316 15.7692C21.5184 16.7628 21.303 17.7594 20.8137 18.6285C20.3244 19.4975 19.5839 20.1985 18.6894 20.6395C17.7948 21.0806 16.7879 21.2411 15.8006 21.1001C14.8133 20.9591 13.8916 20.5231 13.1563 19.8493C12.4209 19.1755 11.9063 18.2953 11.6798 17.324C11.4533 16.3527 11.5255 15.3356 11.887 14.4061C12.2484 13.4765 12.8822 12.6778 13.7053 12.1146C14.5284 11.5514 15.5025 11.25 16.4998 11.2499Z" fill="white"/>
</svg>
