<svg width="146" height="40" viewBox="0 0 146 40" fill="none" xmlns="http://www.w3.org/2000/svg">
<path d="M61.8503 5.69049C61.8503 4.57684 61.6783 3.75794 61.3344 3.23389C60.9905 2.68794 60.3026 2.415 59.2708 2.415H58.9023V1.43238H75.1529C77.2409 1.43238 78.285 2.3058 78.285 4.05271V6.83693H77.1796C77.1796 5.48303 76.7864 4.48946 76.0004 3.8562C75.2388 3.22294 74.0965 2.90635 72.5734 2.90635H66.6407V11.095H76.2214V12.5689H66.6407V21.5765H72.9419C74.3421 21.5765 75.509 21.3036 76.4425 20.7576C77.3761 20.1899 78.1499 19.2182 78.764 17.8424L79.7589 18.1701L78.6904 20.7576C78.371 21.5437 77.9902 22.1225 77.548 22.4937C77.1058 22.8649 76.418 23.0505 75.4845 23.0505H61.8503V5.69049ZM103.586 23.1815C102.038 23.1815 100.638 22.8976 99.3848 22.3298C98.132 21.7403 97.1129 20.6048 96.3269 18.9234L95.4787 17.0891H85.6773L82.6556 23.0505H80.7395L91.6095 1.43238H93.268L101.523 18.9234C102.456 20.9542 103.733 22.046 105.355 22.1989V23.0177C104.913 23.1269 104.323 23.1815 103.586 23.1815ZM86.4511 15.6151H94.779L90.7254 7.06621L86.4511 15.6151ZM114.363 23.6073C112.987 23.6073 111.661 23.4435 110.384 23.116C109.106 22.8102 108.061 22.3626 107.251 21.773C106.441 21.1617 106.035 20.4629 106.035 19.6767V15.8444H107.067C107.435 18.0717 108.209 19.6767 109.388 20.6594C110.567 21.6421 112.213 22.1333 114.326 22.1333C115.751 22.1333 116.881 21.8604 117.716 21.3144C118.551 20.7686 118.969 19.9825 118.969 18.9562C118.969 18.0827 118.662 17.3402 118.047 16.7288C117.434 16.1174 116.475 15.4514 115.174 14.7308L110.641 12.3069C108.995 11.4553 107.816 10.5709 107.103 9.65376C106.415 8.7367 106.072 7.66669 106.072 6.44383C106.072 4.71874 106.808 3.35397 108.283 2.34953C109.781 1.345 111.796 0.842773 114.326 0.842773C115.702 0.842773 117.028 1.00658 118.305 1.33413C119.584 1.63984 120.627 2.09833 121.438 2.70977C122.248 3.29937 122.654 3.98723 122.654 4.77335V8.60566H121.622C121.204 6.37835 120.431 4.77335 119.3 3.79072C118.171 2.80802 116.648 2.31675 114.731 2.31675C113.405 2.31675 112.349 2.60064 111.563 3.16834C110.801 3.73612 110.42 4.51128 110.42 5.49398C110.42 6.34557 110.715 7.05526 111.305 7.62304C111.919 8.16892 112.901 8.79122 114.252 9.49003L118.785 11.8812C120.505 12.7764 121.733 13.6499 122.47 14.5015C123.231 15.3312 123.612 16.3358 123.612 17.5149C123.612 19.4147 122.802 20.9105 121.18 22.0023C119.584 23.0723 117.311 23.6073 114.363 23.6073ZM133.508 2.90635H130.892C129.516 2.90635 128.46 3.21207 127.722 3.82342C127.01 4.43485 126.654 5.43938 126.654 6.83693H125.548V4.05271C125.548 2.3058 126.593 1.43238 128.68 1.43238H146V2.90635H138.298V23.0505H133.508V2.90635Z" fill="#C5C5C5"/>
<path d="M72.7783 39.7428C71.7288 39.7428 70.9709 39.5269 70.5045 39.095C70.0477 38.6544 69.8193 37.9419 69.8193 36.9571V32.3704L66.6271 39.1598H66.1461L62.2396 32.1113V39.1598H61.5107V30.6083H63.2891L66.8166 36.9701L69.8047 30.6083H71.7142V36.9571C71.7142 37.7691 71.792 38.3651 71.9475 38.7452C72.103 39.1253 72.38 39.3498 72.7783 39.4189V39.7428ZM74.4574 32.2926C74.4574 31.8521 74.3893 31.5282 74.2533 31.3209C74.1173 31.1049 73.8452 30.997 73.437 30.997H73.2912V30.6083H79.7195C80.5454 30.6083 80.9584 30.9538 80.9584 31.6448V32.7462H80.5211C80.5211 32.2106 80.3657 31.8176 80.0547 31.5671C79.7535 31.3166 79.3017 31.1914 78.6992 31.1914H76.3523V34.4306H80.1422V35.0136H76.3523V38.5767H78.8448C79.3988 38.5767 79.8604 38.4687 80.2297 38.2528C80.5989 38.0282 80.905 37.6438 81.1479 37.0996L81.5415 37.2292L81.1188 38.2528C80.9925 38.5638 80.8419 38.7927 80.6669 38.9395C80.492 39.0864 80.2199 39.1598 79.8506 39.1598H74.4574V32.2926ZM85.1945 31.1914H84.1596C83.6154 31.1914 83.1976 31.3122 82.906 31.5542C82.6242 31.796 82.4833 32.1933 82.4833 32.7462H82.046V31.6448C82.046 30.9538 82.459 30.6083 83.285 30.6083H90.1356V31.1914H87.0895V39.1598H85.1945V31.1914ZM91.5819 32.2926C91.5819 31.8521 91.5135 31.5282 91.3777 31.3209C91.2419 31.1049 90.9694 30.997 90.5619 30.997H90.4153V30.6083H94.424C95.425 30.6083 96.3289 30.7853 97.1357 31.1395C97.9514 31.485 98.3597 32.1761 98.3597 33.2126C98.3597 33.8864 98.1466 34.409 97.7185 34.7804C97.3011 35.1518 96.829 35.398 96.3046 35.5189C95.7803 35.6398 95.2991 35.7003 94.862 35.7003H93.4769V39.1598H91.5819V32.2926ZM94.3511 35.182C94.9249 35.182 95.3962 35.0266 95.765 34.7156C96.1346 34.4046 96.319 33.882 96.319 33.1478C96.319 32.4222 96.1346 31.9039 95.765 31.593C95.4061 31.282 94.9591 31.1265 94.424 31.1265C94.1425 31.1265 93.9239 31.1438 93.7683 31.1784L93.4769 31.2173V35.182H94.3511ZM106.773 39.2894C106.238 39.2894 105.753 39.1512 105.315 38.8747C104.878 38.5897 104.421 38.1016 103.945 37.4106L102.487 35.2468H101.904V39.1598H99.9948V32.2926C99.9948 31.8521 99.9265 31.5282 99.7907 31.3209C99.6549 31.1049 99.3823 30.997 98.974 30.997H98.8283V30.6083H102.851C103.862 30.6083 104.771 30.7724 105.577 31.1006C106.384 31.4289 106.787 32.0594 106.787 32.9923C106.787 34.0721 106 34.789 104.426 35.1432L105.956 37.4106C106.53 38.2657 107.132 38.7409 107.764 38.8358V39.1598C107.686 39.1943 107.545 39.2245 107.341 39.2504C107.137 39.2764 106.947 39.2894 106.773 39.2894ZM102.778 34.7285C103.323 34.7285 103.785 34.586 104.164 34.301C104.552 34.0073 104.746 33.5495 104.746 32.9276C104.746 32.3143 104.557 31.8607 104.178 31.5671C103.799 31.2734 103.357 31.1265 102.851 31.1265C102.57 31.1265 102.351 31.1438 102.196 31.1784L101.904 31.2173V34.7285H102.778ZM112.942 39.4189C111.999 39.4189 111.158 39.2202 110.42 38.8229C109.691 38.4256 109.127 37.8814 108.729 37.1904C108.33 36.4993 108.132 35.7306 108.132 34.884C108.132 34.0375 108.33 33.2688 108.729 32.5777C109.127 31.8867 109.691 31.3425 110.42 30.9451C111.158 30.5478 111.999 30.3491 112.942 30.3491C113.884 30.3491 114.72 30.5478 115.449 30.9451C116.178 31.3425 116.742 31.8867 117.14 32.5777C117.538 33.2688 117.737 34.0375 117.737 34.884C117.737 35.7306 117.538 36.4993 117.14 37.1904C116.742 37.8814 116.178 38.4256 115.449 38.8229C114.72 39.2202 113.884 39.4189 112.942 39.4189ZM112.942 38.8358C113.826 38.8358 114.511 38.4946 114.997 37.8123C115.482 37.1212 115.725 36.1452 115.725 34.884C115.725 33.6229 115.482 32.6511 114.997 31.9688C114.511 31.2777 113.826 30.9322 112.942 30.9322C112.058 30.9322 111.372 31.2777 110.887 31.9688C110.41 32.6511 110.172 33.6229 110.172 34.884C110.172 36.1452 110.41 37.1212 110.887 37.8123C111.372 38.4946 112.058 38.8358 112.942 38.8358ZM127.395 39.2894C126.783 39.2894 126.194 39.1814 125.631 38.9654C125.077 38.7409 124.479 38.3306 123.838 37.7345L121.491 35.5578V39.1598H119.596L119.582 32.2926C119.582 31.8521 119.514 31.5282 119.378 31.3209C119.242 31.1049 118.969 30.997 118.561 30.997H118.415V30.6083H120.165C120.505 30.6083 120.767 30.6601 120.952 30.7637C121.146 30.8674 121.283 31.0402 121.36 31.282C121.447 31.5239 121.491 31.8608 121.491 32.2926V34.7545L124.013 31.9688C124.372 31.5542 124.756 31.2259 125.165 30.9841C125.583 30.7335 126.059 30.6083 126.593 30.6083H127.614V31.0618C127.011 31.0618 126.491 31.1308 126.054 31.2691C125.626 31.3987 125.257 31.6362 124.946 31.9817L122.774 34.3657L126.141 37.4754C126.501 37.8296 126.904 38.1406 127.351 38.4083C127.808 38.6674 128.177 38.8143 128.459 38.8488V39.1598C128.168 39.2461 127.812 39.2894 127.395 39.2894ZM137.457 39.2116C136.846 39.2116 136.292 39.0993 135.796 38.8747C135.301 38.6415 134.897 38.1924 134.587 37.5272L134.251 36.8016H130.374L129.179 39.1598H128.42L132.72 30.6083H133.376L136.642 37.5272C137.01 38.3306 137.516 38.7625 138.157 38.8229V39.1468C137.983 39.19 137.749 39.2116 137.457 39.2116ZM130.68 36.2186H133.974L132.37 32.8368L130.68 36.2186ZM140.283 31.1914H139.248C138.704 31.1914 138.287 31.3122 137.994 31.5542C137.713 31.796 137.572 32.1933 137.572 32.7462H137.135V31.6448C137.135 30.9538 137.547 30.6083 138.374 30.6083H145.225V31.1914H142.178V39.1598H140.283V31.1914Z" fill="#C5C5C5"/>
<path d="M6.64648 5.88575V0H43.8286V5.88575H25.879H6.64648Z" fill="#C5C5C5"/>
<path d="M0.0302734 0H6.65176V15.6623L0.0302734 19.2888V0Z" fill="#C5C5C5"/>
<path d="M40.5225 0H47.1439V39.3893H40.5225V0Z" fill="#C5C5C5"/>
<path d="M20.6583 9.62109L20.6578 16.7518L0 25.8068V20.8266L20.6583 9.62109Z" fill="#C5C5C5"/>
<path d="M20.6582 9.62061V16.7514L39.1922 25.8064V20.4866L20.6582 9.62061Z" fill="#C5C5C5"/>
<path d="M20.6368 19.5522L20.6372 26.9099L0.00878906 32.7956V27.8154L20.6368 19.5522Z" fill="#C5C5C5"/>
<path d="M20.5254 26.9146L20.5842 19.5571L39.1221 27.8443V32.7114L20.5254 26.9146Z" fill="#C5C5C5"/>
<path d="M20.4043 36.8989V29.7681L39.1218 35.0879V39.389L20.4043 36.8989Z" fill="#C5C5C5"/>
<path d="M20.4034 29.7681L20.4032 36.8986L0.00976562 39.5591L0.00977463 34.5789L20.4034 29.7681Z" fill="#C5C5C5"/>
</svg>
