<svg width="212" height="92" viewBox="0 0 212 92" fill="none" xmlns="http://www.w3.org/2000/svg">
<path d="M13.0244 27.6513V18.2441H65.8215V27.6513H40.3337H13.0244Z" fill="#787878"/>
<path d="M3.62891 18.2441H13.0311V43.2771L3.62891 49.0732V18.2441Z" fill="#787878"/>
<path d="M61.127 18.2441H70.5292V81.1996H61.127V18.2441Z" fill="#787878"/>
<path d="M91.4116 24.6426C91.4116 22.8626 91.1674 21.5538 90.679 20.7162C90.1907 19.8436 89.2139 19.4074 87.7488 19.4074H87.2256V17.8369H110.301C113.266 17.8369 114.748 19.2329 114.748 22.0249V26.4749H113.178C113.178 24.311 112.62 22.723 111.504 21.7109C110.423 20.6987 108.801 20.1927 106.638 20.1927H98.2137V33.2806H111.818V35.6363H98.2137V50.0331H107.161C109.149 50.0331 110.806 49.5968 112.132 48.7242C113.458 47.8169 114.556 46.2637 115.428 44.0649L116.841 44.5886L115.324 48.7242C114.87 49.9807 114.33 50.9057 113.702 51.4989C113.074 52.0922 112.097 52.3889 110.772 52.3889H91.4116V24.6426ZM150.674 52.5983C148.476 52.5983 146.488 52.1446 144.709 51.2371C142.93 50.2949 141.483 48.4799 140.367 45.7926L139.163 42.8609H125.245L120.954 52.3889H118.233L133.668 17.8369H136.023L147.745 45.7926C149.07 49.0384 150.884 50.7835 153.186 51.0278V52.3365C152.558 52.5111 151.72 52.5983 150.674 52.5983ZM126.344 40.5051H138.169L132.413 26.8414L126.344 40.5051ZM165.977 53.2789C164.024 53.2789 162.14 53.0171 160.327 52.4935C158.512 52.0049 157.029 51.2895 155.879 50.3471C154.728 49.37 154.152 48.2531 154.152 46.9967V40.8715H155.617C156.14 44.4314 157.239 46.9967 158.913 48.5672C160.587 50.1378 162.924 50.923 165.924 50.923C167.949 50.923 169.553 50.4868 170.739 49.6142C171.924 48.7417 172.518 47.4853 172.518 45.845C172.518 44.4489 172.081 43.2622 171.209 42.285C170.338 41.3078 168.977 40.2434 167.129 39.0916L160.692 35.2176C158.355 33.8564 156.681 32.4429 155.669 30.977C154.692 29.5113 154.204 27.8011 154.204 25.8466C154.204 23.0895 155.25 20.9082 157.343 19.3028C159.471 17.6972 162.332 16.8945 165.924 16.8945C167.878 16.8945 169.762 17.1563 171.576 17.6799C173.39 18.1685 174.872 18.9013 176.024 19.8785C177.174 20.8209 177.75 21.9203 177.75 23.1767V29.3019H176.286C175.692 25.742 174.593 23.1767 172.988 21.6062C171.384 20.0356 169.222 19.2504 166.5 19.2504C164.617 19.2504 163.117 19.7041 162.001 20.6115C160.919 21.5189 160.378 22.7579 160.378 24.3285C160.378 25.6896 160.797 26.8239 161.635 27.7314C162.507 28.6038 163.901 29.5985 165.82 30.7154L172.256 34.5371C174.698 35.9679 176.443 37.364 177.489 38.7251C178.57 40.0513 179.11 41.6568 179.11 43.5414C179.11 46.5778 177.96 48.9685 175.657 50.7136C173.39 52.4238 170.163 53.2789 165.977 53.2789ZM193.162 20.1927H189.447C187.493 20.1927 185.994 20.6814 184.947 21.6585C183.935 22.6357 183.43 24.2412 183.43 26.4749H181.86V22.0249C181.86 19.2329 183.343 17.8369 186.307 17.8369H210.9V20.1927H199.964V52.3889H193.162V20.1927Z" fill="#23425F"/>
<path d="M106.929 81.4319C105.439 81.4319 104.363 81.0867 103.7 80.3965C103.052 79.6923 102.727 78.5534 102.727 76.9794V69.6486L98.1946 80.5H97.5117L91.9646 69.2344V80.5H90.9297V66.8322H93.4549L98.4637 77.0001L102.707 66.8322H105.418V76.9794C105.418 78.2773 105.529 79.2299 105.749 79.8373C105.97 80.4448 106.364 80.8037 106.929 80.9141V81.4319ZM109.313 69.5242C109.313 68.8202 109.217 68.3024 109.024 67.9711C108.83 67.626 108.444 67.4535 107.865 67.4535H107.658V66.8322H116.785C117.958 66.8322 118.545 67.3843 118.545 68.4889V70.2491H117.924C117.924 69.3931 117.703 68.765 117.261 68.3647C116.834 67.9642 116.192 67.7641 115.337 67.7641H112.004V72.9413H117.386V73.8732H112.004V79.5681H115.543C116.33 79.5681 116.985 79.3955 117.51 79.0503C118.034 78.6914 118.469 78.0771 118.814 77.2073L119.373 77.4144L118.772 79.0503C118.593 79.5474 118.379 79.9132 118.131 80.1479C117.882 80.3827 117.496 80.5 116.972 80.5H109.313V69.5242ZM124.56 67.7641H123.09C122.317 67.7641 121.724 67.9573 121.31 68.344C120.91 68.7305 120.71 69.3655 120.71 70.2491H120.089V68.4889C120.089 67.3843 120.675 66.8322 121.848 66.8322H131.576V67.7641H127.25V80.5H124.56V67.7641ZM133.629 69.5242C133.629 68.8202 133.532 68.3024 133.34 67.9711C133.147 67.626 132.76 67.4535 132.181 67.4535H131.973V66.8322H137.665C139.087 66.8322 140.37 67.1151 141.516 67.6812C142.674 68.2334 143.254 69.3379 143.254 70.9946C143.254 72.0715 142.951 72.9068 142.343 73.5004C141.751 74.0941 141.08 74.4875 140.336 74.6808C139.591 74.874 138.908 74.9708 138.287 74.9708H136.32V80.5H133.629V69.5242ZM137.562 74.1424C138.376 74.1424 139.046 73.8939 139.569 73.3968C140.094 72.8999 140.356 72.0646 140.356 70.8911C140.356 69.7314 140.094 68.903 139.569 68.4061C139.06 67.909 138.425 67.6605 137.665 67.6605C137.265 67.6605 136.955 67.6881 136.734 67.7434L136.32 67.8055V74.1424H137.562ZM155.2 80.7071C154.441 80.7071 153.752 80.4862 153.13 80.0443C152.509 79.5888 151.86 78.8087 151.185 77.7043L149.114 74.2459H148.287V80.5H145.575V69.5242C145.575 68.8202 145.478 68.3024 145.286 67.9711C145.093 67.626 144.706 67.4535 144.126 67.4535H143.919V66.8322H149.632C151.067 66.8322 152.357 67.0944 153.503 67.6191C154.648 68.1437 155.22 69.1515 155.22 70.6426C155.22 72.3683 154.103 73.5142 151.868 74.0803L154.04 77.7043C154.855 79.071 155.711 79.8304 156.607 79.9822V80.5C156.497 80.5552 156.297 80.6035 156.007 80.6449C155.717 80.6864 155.448 80.7071 155.2 80.7071ZM149.528 73.4175C150.301 73.4175 150.957 73.1898 151.495 72.7342C152.047 72.2648 152.322 71.533 152.322 70.5391C152.322 69.5589 152.054 68.834 151.515 68.3647C150.978 67.8952 150.349 67.6605 149.632 67.6605C149.232 67.6605 148.922 67.6881 148.701 67.7434L148.287 67.8055V73.4175H149.528ZM163.959 80.9141C162.621 80.9141 161.427 80.5966 160.378 79.9615C159.344 79.3265 158.543 78.4567 157.977 77.3523C157.412 76.2478 157.13 75.0191 157.13 73.666C157.13 72.3131 157.412 71.0844 157.977 69.9799C158.543 68.8754 159.344 68.0056 160.378 67.3706C161.427 66.7355 162.621 66.418 163.959 66.418C165.298 66.418 166.484 66.7355 167.52 67.3706C168.555 68.0056 169.355 68.8754 169.921 69.9799C170.485 71.0844 170.769 72.3131 170.769 73.666C170.769 75.0191 170.485 76.2478 169.921 77.3523C169.355 78.4567 168.555 79.3265 167.52 79.9615C166.484 80.5966 165.298 80.9141 163.959 80.9141ZM163.959 79.9822C165.215 79.9822 166.188 79.4369 166.878 78.3463C167.567 77.2418 167.912 75.6817 167.912 73.666C167.912 71.6505 167.567 70.0972 166.878 69.0066C166.188 67.9021 165.215 67.3498 163.959 67.3498C162.704 67.3498 161.731 67.9021 161.041 69.0066C160.364 70.0972 160.027 71.6505 160.027 73.666C160.027 75.6817 160.364 77.2418 161.041 78.3463C161.731 79.4369 162.704 79.9822 163.959 79.9822ZM184.483 80.7071C183.613 80.7071 182.778 80.5345 181.978 80.1893C181.191 79.8304 180.342 79.1747 179.432 78.222L176.1 74.7429V80.5H173.409L173.388 69.5242C173.388 68.8202 173.291 68.3024 173.098 67.9711C172.906 67.626 172.519 67.4535 171.939 67.4535H171.732V66.8322H174.216C174.699 66.8322 175.072 66.915 175.333 67.0806C175.609 67.2463 175.803 67.5225 175.913 67.909C176.037 68.2955 176.1 68.834 176.1 69.5242V73.459L179.681 69.0066C180.19 68.344 180.736 67.8193 181.315 67.4328C181.909 67.0323 182.585 66.8322 183.343 66.8322H184.793V67.557C183.937 67.557 183.199 67.6674 182.578 67.8883C181.971 68.0954 181.447 68.4751 181.005 69.0273L177.921 72.8376L182.702 77.8078C183.213 78.3739 183.785 78.8709 184.42 79.2989C185.069 79.713 185.592 79.9477 185.993 80.0029V80.5C185.58 80.638 185.075 80.7071 184.483 80.7071ZM198.771 80.5828C197.902 80.5828 197.116 80.4034 196.412 80.0443C195.708 79.6716 195.135 78.9537 194.694 77.8906L194.218 76.7309H188.712L187.015 80.5H185.939L192.044 66.8322H192.975L197.613 77.8906C198.136 79.1747 198.854 79.8649 199.764 79.9615V80.4793C199.517 80.5483 199.185 80.5828 198.771 80.5828ZM189.147 75.799H193.825L191.548 70.394L189.147 75.799ZM202.784 67.7641H201.314C200.541 67.7641 199.948 67.9573 199.533 68.344C199.134 68.7305 198.933 69.3655 198.933 70.2491H198.312V68.4889C198.312 67.3843 198.899 66.8322 200.072 66.8322H209.8V67.7641H205.474V80.5H202.784V67.7641Z" fill="#787878"/>
<path d="M32.9209 33.6211L32.9201 45.0181L3.58691 59.4906V51.5307L32.9209 33.6211Z" fill="#C5C5C5"/>
<path d="M32.9209 33.6211V45.0182L59.2384 59.4907V50.9881L32.9209 33.6211Z" fill="#787878"/>
<path d="M32.8905 49.4941L32.8911 61.2538L3.59961 70.6609V62.7011L32.8905 49.4941Z" fill="#C5C5C5"/>
<path d="M32.7314 61.2613L32.815 49.502L59.138 62.7473V70.5263L32.7314 61.2613Z" fill="#787878"/>
<path d="M32.5596 77.2194V65.8223L59.1376 74.3249V81.1993L32.5596 77.2194Z" fill="#787878"/>
<path d="M32.5587 65.8223L32.5585 77.2189L3.60059 81.4712L3.6006 73.5114L32.5587 65.8223Z" fill="#C5C5C5"/>
</svg>
